<svg version="1.2" xmlns="http://www.w3.org/2000/svg" viewBox="0 0 1918 391" width="195" height="40">
	<path id="Layer" fill-rule="evenodd" fill="#358FC8" class="s0" d="m387.1 241.2c2.5 7.4 2.5 38.7 0 46.1-3.3 9.2-14.9 18.6-23.2 18.6h-2.2l-0.1 3.9 0.3-0.1-0.3 12.8c-0.5 19.7-1.7 23.7-9 30.9-7.2 7.3-11.2 8.5-30.9 9l-16.3 0.3v2.3c0 8.2-9.4 19.8-18.6 23.1-7.4 2.6-38.7 2.6-46.1 0-9.2-3.3-18.5-14.9-18.5-23.2v-2.3h-55.1v2.3c0 8.3-9.4 19.9-18.6 23.2-7.4 2.6-38.7 2.6-46.1 0-9.2-3.3-18.5-14.9-18.5-23.1v-2.3l-16.4-0.3c-19.7-0.5-23.7-1.7-30.9-9-7.3-7.2-8.5-11.2-9-30.9l-0.3-12.8h0.1l-0.1-3.8h-2.3c-8.2 0-19.8-9.4-23.1-18.6-2.6-7.4-2.6-38.7 0-46.1 3.3-9.2 14.9-18.6 23.2-18.6h2.4v-55.1h-2.4c-8.3 0-19.9-9.3-23.2-18.6-2.6-7.4-2.6-38.6 0-46 3.3-9.3 14.9-18.6 23.1-18.6h2.3l0.1-3.9h-0.1l0.3-12.8c0.5-19.7 1.7-23.6 9-30.9 7.2-7.3 11.2-8.5 30.9-8.9l16.4-0.4v-2.2c0-8.2 9.3-19.9 18.5-23.1 7.4-2.6 38.7-2.6 46.1 0 9.2 3.2 18.6 14.9 18.6 23.2v2.3h55v-2.3c0-8.3 9.4-20 18.6-23.2 7.4-2.6 38.7-2.6 46.1 0 9.2 3.2 18.6 14.9 18.6 23.1v2.1l16.1 0.4c10 0.2 15.9 0.7 20.3 2 4.4 1.2 7.2 3.4 10.8 7 7.3 7.3 8.5 11.2 9 30.9v12.8l0.1 3.8h2.2c5.7 0 13.1 4.5 18.1 10.3 2.2 2.6 4.1 5.5 5.1 8.4 2.5 7.4 2.5 38.6 0 46-3.3 9.3-14.9 18.6-23.2 18.6h-2.4v55.1h2.4c8.3 0 19.9 9.4 23.2 18.6zm-49.1 33.2c2.1 2.1 3.3 2.3 8.8 2.3 6 0 6.6-0.2 9.4-3 2.8-2.8 3-3.4 3-9.5 0-6-0.2-6.6-3-9.4-2.8-2.8-3.4-3-9.5-3-6 0-6.6 0.2-9.4 2.9-2.5 2.6-2.9 3.7-3.2 8.3-0.3 6.1 0.3 8.2 3.9 11.4zm-3.9-147.3c0.3 4.6 0.7 5.7 3.2 8.3 2.8 2.8 3.4 3 9.4 3 6.1 0 6.7-0.2 9.5-3.1 2.8-2.7 3-3.4 3-9.4 0-6-0.2-6.7-3-9.4-2.8-2.9-3.4-3.1-9.4-3.1-5.5 0-6.7 0.3-8.8 2.3-3.6 3.3-4.2 5.3-3.9 11.4zm-82.8-84.7c0 6 0.2 6.6 2.9 9.4 2.6 2.5 3.7 3 8.4 3.3 6.1 0.2 8.1-0.4 11.3-3.9 2.1-2.2 2.3-3.4 2.3-8.9 0-5.9-0.1-6.6-3-9.3-2.8-2.9-3.4-3.1-9.4-3.1-6.1 0-6.7 0.2-9.5 3.1-2.8 2.7-3 3.4-3 9.4zm-138.3-0.1c0 5.5 0.3 6.7 2.3 8.9 3.2 3.5 5.3 4.1 11.4 3.9 4.6-0.3 5.7-0.8 8.3-3.3 2.8-2.8 2.9-3.4 2.9-9.4 0-6-0.1-6.7-3-9.4-2.8-2.9-3.4-3.1-9.4-3.1-6.1 0-6.7 0.2-9.5 3.1-2.8 2.7-3 3.4-3 9.3zm-58.1 220.7c-0.3-4.6-0.7-5.7-3.2-8.3-2.8-2.7-3.4-2.9-9.5-2.9-6 0-6.6 0.2-9.4 3-2.9 2.8-3 3.4-3 9.4 0 6.1 0.1 6.7 3 9.5 2.8 2.8 3.4 3 9.4 3 5.5 0 6.7-0.2 8.8-2.3 3.5-3.2 4.2-5.3 3.9-11.4zm-3.9-147.3c-2.1-2-3.3-2.3-8.8-2.3-6 0-6.6 0.2-9.4 3.1-2.9 2.7-3 3.4-3 9.4 0 6 0.1 6.7 3 9.4 2.8 2.9 3.4 3.1 9.4 3.1 6.1 0 6.7-0.2 9.5-3 2.5-2.6 2.9-3.7 3.2-8.3 0.3-6.1-0.4-8.1-3.9-11.4zm86.9 232.1c0-6-0.1-6.7-2.9-9.5-2.6-2.5-3.7-2.9-8.3-3.2-6.1-0.3-8.2 0.4-11.4 3.9-2 2.1-2.3 3.3-2.3 8.9 0 5.9 0.2 6.5 3 9.3 2.8 2.9 3.5 3 9.5 3 6 0 6.6-0.1 9.4-3 2.9-2.8 3-3.4 3-9.4zm138.3 0.1c0-5.6-0.2-6.8-2.3-8.9-3.2-3.5-5.2-4.2-11.3-3.9-4.7 0.3-5.8 0.7-8.4 3.2-2.7 2.8-2.9 3.5-2.9 9.5 0 6 0.2 6.6 3 9.4 2.8 2.9 3.4 3 9.5 3 6 0 6.6-0.1 9.4-3 2.9-2.8 3-3.4 3-9.3zm10.6-40.4c9.3 3.2 18.6 14.8 18.6 23.3q0 0.7 0 1.2c0.5 0.5 1.7 0.4 5 0 10.2-1.2 19.3-10.1 21-20.1q0.1-0.7 0.2-1.4c0.2-1.7 0.3-2.8 0.3-3.6-0.1-1-0.7-1-2.2-1-8.4 0-20-9.3-23.3-18.6-2.6-7.4-2.6-38.7 0-46.1 3.3-9.2 14.9-18.6 23.2-18.6h2.4v-55.1h-2.4c-8.3 0-19.9-9.3-23.2-18.6-2.6-7.4-2.6-38.6 0-46 1-2.9 2.8-5.8 5.1-8.4h-0.1c5.1-5.8 12.5-10.3 18.3-10.3 2.5 0 2.5 0 1.9-5.3q-0.1-0.6-0.2-1.3c-1.6-9.4-9.6-17.7-18.9-19.8q-1-0.1-1.9-0.3c-5.2-0.6-5.2-0.6-5.2 1.9 0 8.4-9.3 20.1-18.6 23.3-7.4 2.6-38.7 2.6-46.1 0-9.2-3.2-18.5-14.9-18.5-23.2v-2.3h-55.1v2.3c0 8.3-9.4 20-18.6 23.2-7.4 2.6-38.7 2.6-46.1 0-9.3-3.2-18.5-14.9-18.5-23.3 0-2.5 0-2.5-5.3-1.9-10.2 1.2-19.3 10.1-21 20.1q-0.1 0.7-0.2 1.4c-0.6 5.3-0.6 5.3 1.9 5.3 8.4 0 20 9.2 23.3 18.6 2.5 7.4 2.5 38.6 0 46-3.3 9.3-14.9 18.6-23.2 18.6h-2.4v55.1h2.4c8.3 0 19.9 9.4 23.2 18.6 2.5 7.4 2.5 38.7 0 46.1-3.3 9.3-14.9 18.6-23.3 18.6-2.5 0-2.5 0-1.9 5.2q0.1 0.7 0.2 1.4c1.7 10 10.8 18.9 21 20.1 5.3 0.6 5.3 0.6 5.3-1.8 0-8.5 9.2-20.1 18.5-23.3 7.4-2.6 38.7-2.6 46.1 0 9.2 3.2 18.6 14.8 18.6 23.2v2.3h55.1v-2.3c0-8.4 9.3-20 18.5-23.2 7.4-2.6 38.7-2.6 46.1 0z"/>
	<path id="Webship.co" fill="#358FC8" aria-label="Webship.co"  d="m562.4 331q-16.2 0-19.2-15.6l-39-174.9q-2.1-9.6 1.5-14.4 3.9-5.1 12-5.1 9.6 0 14.4 3.6 5.1 3.6 6.6 12.3l26.7 131.4 34.5-132q3.9-15.3 18.9-15.3 15.3 0 19.2 15.3l34.5 132 26.7-131.4q2.7-15.9 19.2-15.9 9.3 0 13.5 5.1 4.2 5.1 2.1 14.4l-39 174.9q-3 15.6-19.5 15.6-15.9 0-19.8-15.3l-36.9-139.8-36.6 139.8q-3.9 15.3-19.8 15.3zm244.8 3.3q-31.5 0-51-18.9-19.5-19.2-19.5-56.7 0-23.4 8.7-40.2 8.7-17.1 24.3-26.1 15.6-9.3 35.7-9.3 20.1 0 34.2 9.3 14.1 9.3 21.6 24 7.5 14.7 7.5 30.6 0 11.1-4.5 14.7-4.5 3.3-13.2 3.3h-81q1.2 21.6 11.4 30.9 10.2 9 26.4 9 18.3 0 28.5-12.6 6-6.3 11.1-8.1 5.4-2.1 11.4 2.1 6 4.2 6.9 10.8 0.9 6.6-5.4 13.8-10.2 12.3-23.4 18-13.2 5.4-29.7 5.4zm-35.7-95.4h63.9q-2.4-14.1-10.5-21.6-7.8-7.8-20.1-7.8-13.2 0-21.9 7.2-8.4 7.2-11.4 22.2zm194.1 95.4q-25.5 0-40.2-22.2v6q0 7.2-4.8 10.2-4.5 2.7-11.4 2.7-15 0-15-17.7v-178.5q0-17.7 17.1-17.7 16.8 0 16.8 17.7v64.8q7.2-7.8 16.8-12 9.6-4.5 20.7-4.5 20.1 0 35.7 9 15.9 9 24.9 26.1 9 16.8 9 40.5 0 23.7-9 40.8-9 16.8-24.9 25.8-15.6 9-35.7 9zm-1.2-30.6q15.9 0 26.4-11.7 10.5-11.7 10.5-33.3 0-21.6-10.5-33.3-10.5-11.7-26.4-11.7-15.9 0-26.4 11.7-10.5 11.7-10.5 33.3 0 21.6 10.5 33.3 10.5 11.7 26.4 11.7zm145.5 30.3q-13.5 0-25.8-3.3-12-3.6-22.2-10.8-7.5-5.1-8.1-11.1-0.3-6.3 4.8-12 5.1-5.4 10.5-5.1 5.7 0.3 13.2 4.5 12 8.4 29.4 8.4 12.3 0 17.7-3.3 5.7-3.6 5.7-12.9 0-4.5-2.7-7.2-2.7-3-10.2-5.4-7.2-2.4-21.3-5.1-21-4.2-33.6-13.8-12.6-9.6-12.6-30.3 0-13.5 7.2-23.1 7.2-9.9 19.5-15.3 12.3-5.4 27.3-5.4 23.4 0 39.6 9.9 8.1 4.2 9 10.5 1.2 6-3.3 11.7-4.8 6-10.5 6-5.4 0-12.9-3.3-4.8-2.7-10.2-3.9-5.1-1.2-11.1-1.2-11.1 0-15.9 3.9-4.5 3.9-4.5 9.3 0 3.9 2.1 6.6 2.4 2.7 9 5.1 6.6 2.4 19.2 5.4 24 5.7 37.2 16.5 13.2 10.8 13.2 30.3 0 21.9-16.8 33.3-16.5 11.1-42.9 11.1zm97.2-3q-17.1 0-17.1-17.7v-178.5q0-17.7 17.1-17.7 16.8 0 16.8 17.7v69q4.8-8.4 14.4-14.4 9.6-6.3 23.1-6.3 22.5 0 36.6 14.4 14.4 14.4 14.4 42.3v73.5q0 17.7-16.8 17.7-17.1 0-17.1-17.7v-65.4q0-17.1-6.9-25.5-6.9-8.7-18.6-8.7-12.9 0-21 9-8.1 8.7-8.1 26.1v64.5q0 17.7-16.8 17.7zm157.5 0q-16.8 0-16.8-17.7v-108.9q0-17.7 16.8-17.7 16.8 0 16.8 17.7v108.9q0 17.7-16.8 17.7zm-0.3-168q-8.7 0-15-6.3-6.3-6.3-6.3-15 0-8.7 6.3-15 6.3-6.3 15-6.3 8.7 0 15 6.3 6.3 6.3 6.3 15 0 8.7-6.3 15-6.3 6.3-15 6.3zm68.7 227.1q-17.1 0-17.1-17.7v-168q0-17.7 15-17.7 14.4 0 15.3 6.3l0.9 9.6q15.3-19.5 40.2-19.5 20.1 0 35.7 9 15.9 9 24.9 26.1 9 16.8 9 40.5 0 23.7-9 40.8-9 16.8-24.9 25.8-15.6 9-35.7 9-11.1 0-20.7-4.2-9.6-4.5-16.8-12.3v54.6q0 8.4-4.5 13.2-4.2 4.5-12.3 4.5zm53.1-86.4q15.9 0 26.4-11.7 10.5-11.7 10.5-33.3 0-21.6-10.5-33.3-10.5-11.7-26.4-11.7-15.9 0-26.4 11.7-10.5 11.7-10.5 33.3 0 21.6 10.5 33.3 10.5 11.7 26.4 11.7zm114 30.6q-9.3 0-16.2-6.6-6.6-6.6-6.6-15.9 0-9.6 6.6-16.2 6.9-6.6 16.2-6.6 9.3 0 15.9 6.6 6.9 6.6 6.9 16.2 0 9.3-6.9 15.9-6.6 6.6-15.9 6.6zm112.8 0q-19.8 0-35.7-9.3-15.6-9.6-24.9-26.4-9-17.1-9-39.9 0-22.8 9-39.6 9.3-17.1 24.9-26.4 15.9-9.6 35.7-9.6 25.8 0 43.2 14.4 7.2 5.4 6.3 12-0.6 6.6-6.9 11.4-6.6 4.5-11.4 3.9-4.5-0.6-12-5.4-8.4-5.7-19.2-5.7-15.6 0-25.5 11.7-9.9 11.7-9.9 33.3 0 21.6 9.9 33.3 9.9 11.7 25.5 11.7 11.1 0 18.6-5.4 6.9-4.2 12-5.4 5.4-1.5 11.7 3.3 6.6 4.8 7.5 11.4 0.9 6.3-6 11.7-18.3 15-43.8 15zm135 0q-19.8 0-35.7-9.3-15.6-9.6-24.9-26.4-9-17.1-9-39.9 0-22.8 9-39.6 9.3-17.1 24.9-26.4 15.9-9.6 35.7-9.6 20.4 0 36 9.6 15.9 9.3 24.9 26.4 9 16.8 9 39.6 0 22.8-9 39.9-9 16.8-24.9 26.4-15.6 9.3-36 9.3zm0-30.6q15.9 0 25.8-11.7 10.2-11.7 10.2-33.3 0-21.6-10.2-33.3-9.9-11.7-25.8-11.7-15.6 0-25.5 11.7-9.9 11.7-9.9 33.3 0 21.6 9.9 33.3 9.9 11.7 25.5 11.7z"/>
</svg>