<?xml version="1.0" encoding="UTF-8" standalone="no"?>
<svg
   xmlns:dc="http://purl.org/dc/elements/1.1/"
   xmlns:cc="http://creativecommons.org/ns#"
   xmlns:rdf="http://www.w3.org/1999/02/22-rdf-syntax-ns#"
   xmlns:svg="http://www.w3.org/2000/svg"
   xmlns="http://www.w3.org/2000/svg"
   version="1.0"
   width="442.000000pt"
   height="442.000000pt"
   viewBox="0 0 442.000000 442.000000"
   preserveAspectRatio="xMidYMid meet">
  <g
     transform="translate(0.000000,442.000000) scale(0.100000,-0.100000)"
     fill="#000000"
     stroke="none"
     id="g8">
    <path
       d="M1230 4384 c-149 -28 -255 -135 -272 -274 l-3 -25 -175 -6 c-210 -7 -254 -20 -331 -98 -79 -78 -92 -121 -97 -333 l-4 -178 -24 0 c-89 0 -215 -101 -250 -201 -28 -80 -28 -418 0 -498 35 -100 161 -201 251 -201 l25 0 0 -300 0 -300 -25 0 c-90 0 -216 -101 -251 -201 -28 -80 -28 -418 0 -498 35 -100 161 -201 250 -201 l24 0 4 -177 c5 -213 18 -256 97 -334 78 -79 121 -92 334 -97 l177 -4 0 -24 c0 -89 101 -215 201 -250 80 -28 418 -28 498 0 100 35 201 161 201 251 l0 25 295 0 295 0 0 -25 c0 -90 101 -216 201 -251 79 -28 428 -28 507 -1 98 35 202 163 202 251 l0 24 178 4 c212 5 255 18 333 97 79 78 92 121 97 334 l4 177 24 0 c88 0 216 104 251 202 27 79 27 418 -1 498 -36 102 -145 188 -256 202 l-25 3 -3 298 -2 297 25 0 c90 0 216 101 251 201 28 79 28 418 0 497 -35 103 -159 202 -250 202 l-24 0 -4 178 c-5 209 -18 252 -94 332 -72 75 -121 90 -329 101 -93 4 -173 8 -177 8 -5 1 -8 12 -8 26 0 89 -102 217 -200 251 -47 16 -84 19 -250 19 -241 0 -276 -9 -361 -94 -54 -55 -82 -110 -91 -181 l-3 -25 -220 -3 c-121 -2 -253 0 -292 3 -69 6 -73 8 -73 31 0 84 -96 209 -191 246 -47 19 -77 22 -234 24 -99 1 -191 0 -205 -2z m283 -362 c29 -30 32 -38 32 -97 0 -60 -3 -67 -33 -97 -30 -31 -37 -33 -102 -33 -65 0 -72 2 -101 31 -50 51 -54 150 -6 195 34 32 57 39 120 36 50 -3 62 -8 90 -35z m1462 24 c47 -20 68 -65 63 -133 -4 -44 -11 -60 -37 -86 -29 -30 -36 -32 -101 -32 -65 0 -72 2 -102 33 -30 30 -33 37 -33 96 0 55 4 68 25 91 14 15 34 31 45 35 32 14 103 11 140 -4z m-2015 -304 c0 -11 9 -45 20 -77 27 -78 84 -135 170 -166 61 -22 78 -24 265 -24 185 0 204 2 258 24 101 40 187 149 187 236 l0 25 295 0 295 0 0 -25 c0 -87 86 -196 187 -236 54 -22 73 -24 258 -24 187 0 204 2 267 24 85 31 140 86 168 167 11 31 20 66 20 77 0 18 5 19 58 13 113 -13 221 -121 230 -231 4 -54 4 -55 -22 -55 -91 0 -217 -100 -252 -201 -28 -80 -28 -418 0 -498 35 -100 161 -201 251 -201 l25 0 0 -300 0 -300 -25 0 c-89 0 -217 -102 -251 -200 -16 -47 -19 -84 -19 -250 0 -243 9 -275 97 -361 59 -57 126 -89 188 -89 22 0 22 -3 16 -57 -13 -117 -116 -217 -235 -229 l-64 -7 7 26 c6 27 -28 137 -43 137 -11 0 -81 69 -81 80 0 5 -26 19 -57 32 -54 21 -73 23 -263 23 -175 0 -213 -3 -259 -19 -100 -35 -201 -161 -201 -251 l0 -25 -295 0 -295 0 0 25 c0 90 -101 216 -201 251 -80 28 -418 28 -498 0 -101 -35 -201 -161 -201 -252 0 -27 0 -27 -57 -20 -114 13 -216 116 -229 229 -7 57 -7 57 20 57 91 0 217 100 252 201 28 80 28 418 0 498 -35 100 -161 201 -251 201 l-25 0 0 300 0 300 25 0 c90 0 216 101 251 201 28 80 28 418 0 498 -35 101 -161 201 -252 201 -27 0 -27 0 -20 58 14 123 128 227 254 231 25 1 32 -3 32 -17z m-347 -620 c30 -30 32 -37 32 -102 0 -65 -2 -72 -33 -102 -30 -31 -37 -33 -102 -33 -65 0 -72 2 -102 33 -31 30 -33 37 -33 101 0 60 3 73 25 96 35 38 57 45 123 42 50 -3 62 -8 90 -35z m3290 0 c30 -30 32 -37 32 -102 0 -65 -2 -72 -33 -102 -30 -31 -37 -33 -102 -33 -65 0 -72 2 -102 33 -31 30 -33 37 -33 101 0 60 3 73 25 96 35 38 57 45 123 42 50 -3 62 -8 90 -35z m-3290 -1500 c30 -30 32 -37 32 -102 0 -65 -2 -72 -33 -102 -30 -31 -37 -33 -102 -33 -65 0 -72 2 -102 33 -31 30 -33 37 -33 101 0 60 3 73 25 96 35 38 57 45 123 42 50 -3 62 -8 90 -35z m3275 18 c18 -11 37 -32 42 -46 15 -38 12 -121 -5 -153 -35 -69 -159 -81 -218 -22 -30 29 -32 36 -32 100 0 60 3 73 25 96 14 15 34 31 45 35 37 16 109 11 143 -10z m-2375 -918 c30 -30 32 -37 32 -102 0 -65 -2 -72 -33 -102 -30 -31 -37 -33 -102 -33 -65 0 -72 2 -102 33 -31 30 -33 37 -33 101 0 60 3 73 25 96 35 38 57 45 123 42 50 -3 62 -8 90 -35z m1490 -1 c30 -29 32 -36 32 -101 0 -65 -2 -72 -33 -102 -30 -31 -37 -33 -102 -33 -64 0 -72 2 -99 30 -33 33 -34 37 -32 112 1 40 7 58 28 83 35 42 57 50 121 47 44 -3 59 -9 85 -36z"
       id="path4"
       style="fill:#328ec7;fill-opacity:1" />
  </g>
</svg>
